<?xml version="1.0" encoding="UTF-8" standalone="no"?>
<svg
   viewBox="0 0 512 512"
   role="img"
   aria-label="AeiBi icon"
   version="1.1"
   id="svg7"
   sodipodi:docname="icon_AeiBei.svg"
   inkscape:export-filename="icon_AeiBei.png"
   inkscape:export-xdpi="384"
   inkscape:export-ydpi="384"
   inkscape:version="1.4.2 (ebf0e940, 2025-05-08)"
   xmlns:inkscape="http://www.inkscape.org/namespaces/inkscape"
   xmlns:sodipodi="http://sodipodi.sourceforge.net/DTD/sodipodi-0.dtd"
   xmlns="http://www.w3.org/2000/svg"
   xmlns:svg="http://www.w3.org/2000/svg">
  <defs
     id="defs7" />
  <sodipodi:namedview
     id="namedview7"
     pagecolor="#ffffff"
     bordercolor="#000000"
     borderopacity="0.25"
     inkscape:showpageshadow="2"
     inkscape:pageopacity="0.0"
     inkscape:pagecheckerboard="0"
     inkscape:deskcolor="#d1d1d1"
     inkscape:zoom="1.625"
     inkscape:cx="255.69231"
     inkscape:cy="256"
     inkscape:window-width="1920"
     inkscape:window-height="1027"
     inkscape:window-x="0"
     inkscape:window-y="25"
     inkscape:window-maximized="1"
     inkscape:current-layer="g3"
     inkscape:export-bgcolor="#ffffffff" />
  <!-- Wordmark (background removed / transparent) -->
  <g
     fill="none"
     stroke="#42BDC9"
     stroke-width="28"
     stroke-linecap="round"
     stroke-linejoin="round"
     shape-rendering="geometricPrecision"
     transform="translate(55 0) scale(0.90)"
     id="g7">
    <!-- A -->
    <g
       transform="translate(0 0)"
       id="g2">
      <path
         d="M0 365 Q30 255 55 165 Q80 255 110 365"
         id="path1" />
      <path
         d="M25 295 Q55 275 85 295"
         id="path2" />
    </g>
    <!-- e -->
    <g
       transform="translate(150,-8.8888888)"
       id="g3">
      <path
         d="m 3.4700834,323.09402 c 63.4579276,-1.388 58.0538096,-37.83401 39.6068406,-44.94017 -21.437031,-8.258 -40.3952578,0.5668 -50.3589759,15.64103 -6.8624061,10.38221 -19.1889441,50.88633 8.6642824,64.6135 28.2852555,13.94009 43.3113255,4.85462 58.9425565,-10.73316"
         id="path3" />
    </g>
    <!-- i -->
    <g
       transform="translate(250.55556,6.6666666)"
       id="g4">
      <path
         d="m 6.6666676,275 q 0,40 0,80"
         id="path4" />
      <circle
         cx="6.666667"
         cy="231.66663"
         r="12"
         fill="#42BDC9"
         stroke="none"
         id="circle4" />
    </g>
    <!-- B -->
    <g
       transform="translate(307.22222)"
       id="g5">
      <path
         d="m 0,365 q 0,-80 0,-165 0,-35 35,-35 40,0 40,45 0,30 -35,40 50,12 50,55 0,50 -55,50 -35,0 -35,-30"
         id="path5" />
    </g>
    <!-- i -->
    <g
       transform="translate(430,11.111111)"
       id="g6">
      <path
         d="m 20,275 q 0,40 0,80"
         id="path6" />
      <circle
         cx="20"
         cy="245"
         r="12"
         fill="#42BDC9"
         stroke="none"
         id="circle6" />
    </g>
  </g>
</svg>
